<svg width="97" height="89" viewBox="0 0 97 89" fill="none" xmlns="http://www.w3.org/2000/svg">
<rect width="97" height="89" rx="12" fill="#DEB887"/>
<path d="M72.5 73.4007V46.5341H91.6556V52.4112H79.7158V57.0289H90.6693V62.9059H79.7158V67.5236H91.6037V73.4007H72.5Z" fill="white"/>
<path d="M38.4521 46.5341H47.433L53.6105 61.7515H53.922L60.0995 46.5341H69.0803V73.4007H62.0203V57.8684H61.8126L55.8946 73.1908H51.6378L45.7199 57.7635H45.5122V73.4007H38.4521V46.5341Z" fill="white"/>
<path d="M35.0323 46.5341V73.4007H27.8165V46.5341H35.0323Z" fill="white"/>
<path d="M2 52.4112V46.5341H25.1009V52.4112H17.1064V73.4007H9.99448V52.4112H2Z" fill="white"/>
<path d="M48.2836 41.4178V19.3024H57.7273C59.3511 19.3024 60.772 19.6263 61.9898 20.2742C63.2077 20.9221 64.1549 21.8328 64.8315 23.0063C65.5081 24.1797 65.8464 25.5511 65.8464 27.1205C65.8464 28.7043 65.4974 30.0757 64.7995 31.2348C64.1086 32.3938 63.1365 33.2865 61.883 33.9128C60.6367 34.5391 59.1802 34.8523 57.5137 34.8523H51.8731V30.1873H56.3172C57.0151 30.1873 57.6098 30.0649 58.1012 29.8201C58.5998 29.5682 58.9808 29.2118 59.2443 28.7511C59.5149 28.2904 59.6503 27.7468 59.6503 27.1205C59.6503 26.487 59.5149 25.9471 59.2443 25.5007C58.9808 25.0472 58.5998 24.7016 58.1012 24.4641C57.6098 24.2193 57.0151 24.0969 56.3172 24.0969H54.2233V41.4178H48.2836Z" fill="#64099B"/>
<path d="M38.7929 19.3023H44.7326V33.47C44.7326 35.1546 44.3338 36.6124 43.5361 37.8434C42.7456 39.0672 41.6417 40.0139 40.2244 40.6834C38.8071 41.3457 37.1619 41.6769 35.2889 41.6769C33.4015 41.6769 31.7492 41.3457 30.3319 40.6834C28.9147 40.0139 27.8108 39.0672 27.0202 37.8434C26.2368 36.6124 25.8451 35.1546 25.8451 33.47V19.3023H31.7848V32.9517C31.7848 33.6356 31.9344 34.2475 32.2335 34.7874C32.5326 35.3201 32.9457 35.7377 33.4727 36.0401C34.0069 36.3424 34.6123 36.4936 35.2889 36.4936C35.9726 36.4936 36.5779 36.3424 37.105 36.0401C37.632 35.7377 38.0451 35.3201 38.3442 34.7874C38.6433 34.2475 38.7929 33.6356 38.7929 32.9517V19.3023Z" fill="#64099B"/>
<path d="M23.1504 27.5956H17.1252C17.0824 27.0917 16.9685 26.6346 16.7833 26.2242C16.6053 25.8139 16.356 25.4611 16.0355 25.166C15.7221 24.8636 15.3411 24.6332 14.8924 24.4749C14.4437 24.3093 13.9345 24.2265 13.3648 24.2265C12.3677 24.2265 11.5237 24.4713 10.8329 24.9608C10.1492 25.4503 9.62927 26.1522 9.27317 27.0665C8.92419 27.9808 8.74971 29.0786 8.74971 30.3601C8.74971 31.7135 8.92776 32.8473 9.28385 33.7616C9.64708 34.6687 10.1705 35.3526 10.8543 35.8133C11.538 36.2669 12.3606 36.4936 13.322 36.4936C13.8704 36.4936 14.3618 36.4253 14.7963 36.2885C15.2307 36.1445 15.6082 35.9393 15.9287 35.673C16.2492 35.4066 16.5091 35.0862 16.7085 34.7119C16.9151 34.3303 17.0539 33.902 17.1252 33.4269L23.1504 33.47C23.0791 34.4059 22.8192 35.3598 22.3705 36.3317C21.9218 37.2963 21.2844 38.189 20.4583 39.0097C19.6392 39.8232 18.6243 40.4783 17.4136 40.975C16.2029 41.4718 14.7963 41.7201 13.1938 41.7201C11.1854 41.7201 9.38356 41.2846 7.78824 40.4135C6.20003 39.5424 4.943 38.261 4.01714 36.5692C3.09841 34.8775 2.63904 32.8077 2.63904 30.3601C2.63904 27.898 3.10909 25.8247 4.04919 24.1401C4.98929 22.4483 6.25701 21.1705 7.85233 20.3066C9.44766 19.4355 11.2282 19 13.1938 19C14.5755 19 15.8468 19.1908 17.0077 19.5723C18.1685 19.9539 19.187 20.5118 20.063 21.2461C20.939 21.9732 21.6441 22.8695 22.1782 23.9349C22.7124 25.0004 23.0364 26.2206 23.1504 27.5956Z" fill="#64099B"/>
<path d="M95.4182 27.2674V21.9832H89.1488V17.6853H68.2507V36.8495C68.2507 39.181 70.1252 41.0769 72.4303 41.0769H84.9692C87.2743 41.0769 89.1488 39.181 89.1488 36.8495V34.629C92.684 34.1107 95.4182 30.9843 95.4182 27.2674ZM93.3284 27.2674C93.3284 29.8191 91.5306 32.0242 89.1488 32.5152V24.0969H93.3284V27.2674ZM73.416 6.57083L72.0181 5C69.0895 7.66791 70.665 9.71454 71.6058 10.9365C72.5243 12.1306 72.8681 12.5775 71.6915 13.7676L73.1691 15.262C75.6507 12.752 74.1507 10.8024 73.2548 9.63823C72.2936 8.38932 71.9334 7.92184 73.416 6.57083ZM78.6406 6.57083L77.2426 5C74.314 7.66791 75.8895 9.71454 76.8304 10.9365C77.7488 12.1306 78.0926 12.5775 76.9161 13.7676L78.3936 15.262C80.8753 12.752 79.3753 10.8024 78.4793 9.63823C77.5181 8.38932 77.1579 7.92184 78.6406 6.57083ZM83.8651 6.57083L82.4671 5C79.5386 7.66791 81.1141 9.71454 82.0549 10.9365C82.9733 12.1306 83.3171 12.5775 82.1406 13.7676L83.6181 15.262C86.0998 12.752 84.5998 10.8024 83.7038 9.63823C82.7426 8.38932 82.3824 7.92184 83.8651 6.57083Z" fill="#64099B"/>
<path d="M72.5 73.4007V46.5341H91.6556V52.4112H79.7158V57.0289H90.6693V62.9059H79.7158V67.5236H91.6037V73.4007H72.5Z" fill="white"/>
<path d="M38.4521 46.5341H47.433L53.6105 61.7515H53.922L60.0995 46.5341H69.0803V73.4007H62.0203V57.8684H61.8126L55.8946 73.1908H51.6378L45.7199 57.7635H45.5122V73.4007H38.4521V46.5341Z" fill="white"/>
<path d="M35.0323 46.5341V73.4007H27.8165V46.5341H35.0323Z" fill="white"/>
<path d="M2 52.4112V46.5341H25.1009V52.4112H17.1064V73.4007H9.99448V52.4112H2Z" fill="white"/>
<path d="M48.2836 41.4178V19.3024H57.7273C59.3511 19.3024 60.772 19.6263 61.9898 20.2742C63.2077 20.9221 64.1549 21.8328 64.8315 23.0063C65.5081 24.1797 65.8464 25.5511 65.8464 27.1205C65.8464 28.7043 65.4974 30.0757 64.7995 31.2348C64.1086 32.3938 63.1365 33.2865 61.883 33.9128C60.6367 34.5391 59.1802 34.8523 57.5137 34.8523H51.8731V30.1873H56.3172C57.0151 30.1873 57.6098 30.0649 58.1012 29.8201C58.5998 29.5682 58.9808 29.2118 59.2443 28.7511C59.5149 28.2904 59.6503 27.7468 59.6503 27.1205C59.6503 26.487 59.5149 25.9471 59.2443 25.5007C58.9808 25.0472 58.5998 24.7016 58.1012 24.4641C57.6098 24.2193 57.0151 24.0969 56.3172 24.0969H54.2233V41.4178H48.2836Z" fill="#64099B"/>
<path d="M38.7929 19.3023H44.7326V33.47C44.7326 35.1546 44.3338 36.6124 43.5361 37.8434C42.7456 39.0672 41.6417 40.0139 40.2244 40.6834C38.8071 41.3457 37.1619 41.6769 35.2889 41.6769C33.4015 41.6769 31.7492 41.3457 30.3319 40.6834C28.9147 40.0139 27.8108 39.0672 27.0202 37.8434C26.2368 36.6124 25.8451 35.1546 25.8451 33.47V19.3023H31.7848V32.9517C31.7848 33.6356 31.9344 34.2475 32.2335 34.7874C32.5326 35.3201 32.9457 35.7377 33.4727 36.0401C34.0069 36.3424 34.6123 36.4936 35.2889 36.4936C35.9726 36.4936 36.5779 36.3424 37.105 36.0401C37.632 35.7377 38.0451 35.3201 38.3442 34.7874C38.6433 34.2475 38.7929 33.6356 38.7929 32.9517V19.3023Z" fill="#64099B"/>
<path d="M23.1504 27.5956H17.1252C17.0824 27.0917 16.9685 26.6346 16.7833 26.2242C16.6053 25.8139 16.356 25.4611 16.0355 25.166C15.7221 24.8636 15.3411 24.6332 14.8924 24.4749C14.4437 24.3093 13.9345 24.2265 13.3648 24.2265C12.3677 24.2265 11.5237 24.4713 10.8329 24.9608C10.1492 25.4503 9.62927 26.1522 9.27317 27.0665C8.92419 27.9808 8.74971 29.0786 8.74971 30.3601C8.74971 31.7135 8.92776 32.8473 9.28385 33.7616C9.64708 34.6687 10.1705 35.3526 10.8543 35.8133C11.538 36.2669 12.3606 36.4936 13.322 36.4936C13.8704 36.4936 14.3618 36.4253 14.7963 36.2885C15.2307 36.1445 15.6082 35.9393 15.9287 35.673C16.2492 35.4066 16.5091 35.0862 16.7085 34.7119C16.9151 34.3303 17.0539 33.902 17.1252 33.4269L23.1504 33.47C23.0791 34.4059 22.8192 35.3598 22.3705 36.3317C21.9218 37.2963 21.2844 38.189 20.4583 39.0097C19.6392 39.8232 18.6243 40.4783 17.4136 40.975C16.2029 41.4718 14.7963 41.7201 13.1938 41.7201C11.1854 41.7201 9.38356 41.2846 7.78824 40.4135C6.20003 39.5424 4.943 38.261 4.01714 36.5692C3.09841 34.8775 2.63904 32.8077 2.63904 30.3601C2.63904 27.898 3.10909 25.8247 4.04919 24.1401C4.98929 22.4483 6.25701 21.1705 7.85233 20.3066C9.44766 19.4355 11.2282 19 13.1938 19C14.5755 19 15.8468 19.1908 17.0077 19.5723C18.1685 19.9539 19.187 20.5118 20.063 21.2461C20.939 21.9732 21.6441 22.8695 22.1782 23.9349C22.7124 25.0004 23.0364 26.2206 23.1504 27.5956Z" fill="#64099B"/>
<path d="M95.4182 27.2674V21.9832H89.1488V17.6853H68.2507V36.8495C68.2507 39.181 70.1252 41.0769 72.4303 41.0769H84.9692C87.2743 41.0769 89.1488 39.181 89.1488 36.8495V34.629C92.684 34.1107 95.4182 30.9843 95.4182 27.2674ZM93.3284 27.2674C93.3284 29.8191 91.5306 32.0242 89.1488 32.5152V24.0969H93.3284V27.2674ZM73.416 6.57083L72.0181 5C69.0895 7.66791 70.665 9.71454 71.6058 10.9365C72.5243 12.1306 72.8681 12.5775 71.6915 13.7676L73.1691 15.262C75.6507 12.752 74.1507 10.8024 73.2548 9.63823C72.2936 8.38932 71.9334 7.92184 73.416 6.57083ZM78.6406 6.57083L77.2426 5C74.314 7.66791 75.8895 9.71454 76.8304 10.9365C77.7488 12.1306 78.0926 12.5775 76.9161 13.7676L78.3936 15.262C80.8753 12.752 79.3753 10.8024 78.4793 9.63823C77.5181 8.38932 77.1579 7.92184 78.6406 6.57083ZM83.8651 6.57083L82.4671 5C79.5386 7.66791 81.1141 9.71454 82.0549 10.9365C82.9733 12.1306 83.3171 12.5775 82.1406 13.7676L83.6181 15.262C86.0998 12.752 84.5998 10.8024 83.7038 9.63823C82.7426 8.38932 82.3824 7.92184 83.8651 6.57083Z" fill="#64099B"/>
</svg>
